<?xml version="1.0" standalone="no"?>
<!DOCTYPE svg PUBLIC "-//W3C//DTD SVG 1.1//EN" "http://www.w3.org/Graphics/SVG/1.1/DTD/svg11.dtd">
<svg xmlns="http://www.w3.org/2000/svg" xmlns:xlink="http://www.w3.org/1999/xlink" version="1.1" id="Layer_1" x="0px" y="0px" width="231.5054931640625" height="288.489990234375" viewBox="0 0 231.5055 288.49" style="enable-background:new 0 0 231.5055 288.49;" xml:space="preserve">
<style type="text/css">
	.st0{fill:#4c63d9;}
	.st1{fill:#010101;}
</style>
<g>
	<path class="st0" d="M231.5055,251.3c-24.3604,23.0601-57.25,37.1899-93.4399,37.1899c-34.75,0-66.46-13.04-90.5-34.49   l19.3896-24.26c18.7002,17.23,43.6802,27.75,71.1104,27.75c27.3398,0,52.2295-10.4399,70.9097-27.5701L231.5055,251.3z"/>
	<path class="st1" d="M188.7853,0v30.46C160.0657,67.6797,82.3978,169.617,52.3053,207.3801   c0.1727,0.1227-24.1717,30.2234-24.1523,30.2424L0,212.2166C29.1824,175.5924,107.2781,75.8962,137.0753,37.98v-1.8801H27.4552V0   H188.7853z"/>
</g>
</svg>